<?xml version="1.0" encoding="UTF-8" standalone="no"?>
<!-- Created with Inkscape (http://www.inkscape.org/) -->

<svg
   xmlns:dc="http://purl.org/dc/elements/1.1/"
   xmlns:cc="http://creativecommons.org/ns#"
   xmlns:rdf="http://www.w3.org/1999/02/22-rdf-syntax-ns#"
   xmlns:svg="http://www.w3.org/2000/svg"
   xmlns="http://www.w3.org/2000/svg"
   xmlns:xlink="http://www.w3.org/1999/xlink"
   xmlns:sodipodi="http://sodipodi.sourceforge.net/DTD/sodipodi-0.dtd"
   xmlns:inkscape="http://www.inkscape.org/namespaces/inkscape"
   width="110mm"
   height="110mm"
   viewBox="0 0 389.76378 389.76378"
   id="svg5620"
   version="1.1"
   inkscape:version="0.91 r13725"
   sodipodi:docname="flavicon.svg">
  <defs
     id="defs5622">
    <filter
       inkscape:collect="always"
       id="filter14511"
       style="color-interpolation-filters:sRGB">
      <feGaussianBlur
         inkscape:collect="always"
         stdDeviation="0.85627009"
         id="feGaussianBlur14513" />
    </filter>
    <filter
       inkscape:collect="always"
       id="filter14506-80-6-24"
       style="color-interpolation-filters:sRGB">
      <feGaussianBlur
         inkscape:collect="always"
         stdDeviation="0.70957443"
         id="feGaussianBlur14508-15-9-58" />
    </filter>
    <filter
       inkscape:collect="always"
       id="filter14511-1"
       style="color-interpolation-filters:sRGB">
      <feGaussianBlur
         inkscape:collect="always"
         stdDeviation="0.85627009"
         id="feGaussianBlur14513-1" />
    </filter>
    <filter
       inkscape:collect="always"
       id="filter14506-80-6-946"
       style="color-interpolation-filters:sRGB">
      <feGaussianBlur
         inkscape:collect="always"
         stdDeviation="0.70957443"
         id="feGaussianBlur14508-15-9-03" />
    </filter>
    <filter
       inkscape:collect="always"
       id="filter14511-9"
       style="color-interpolation-filters:sRGB">
      <feGaussianBlur
         inkscape:collect="always"
         stdDeviation="0.85627009"
         id="feGaussianBlur14513-0" />
    </filter>
    <filter
       inkscape:collect="always"
       id="filter14511-3"
       style="color-interpolation-filters:sRGB">
      <feGaussianBlur
         inkscape:collect="always"
         stdDeviation="0.85627009"
         id="feGaussianBlur14513-8" />
    </filter>
    <filter
       inkscape:collect="always"
       id="filter14506-80-6-9"
       style="color-interpolation-filters:sRGB">
      <feGaussianBlur
         inkscape:collect="always"
         stdDeviation="0.70957443"
         id="feGaussianBlur14508-15-9-7" />
    </filter>
    <filter
       inkscape:collect="always"
       id="filter14506-80-3-8"
       style="color-interpolation-filters:sRGB">
      <feGaussianBlur
         inkscape:collect="always"
         stdDeviation="0.70957443"
         id="feGaussianBlur14508-15-7-9" />
    </filter>
    <filter
       inkscape:collect="always"
       id="filter14506-80-6"
       style="color-interpolation-filters:sRGB">
      <feGaussianBlur
         inkscape:collect="always"
         stdDeviation="0.70957443"
         id="feGaussianBlur14508-15-9" />
    </filter>
    <filter
       inkscape:collect="always"
       id="filter14506-80-3"
       style="color-interpolation-filters:sRGB">
      <feGaussianBlur
         inkscape:collect="always"
         stdDeviation="0.70957443"
         id="feGaussianBlur14508-15-7" />
    </filter>
    <filter
       inkscape:collect="always"
       id="filter14506-80-6-8"
       style="color-interpolation-filters:sRGB">
      <feGaussianBlur
         inkscape:collect="always"
         stdDeviation="0.70957443"
         id="feGaussianBlur14508-15-9-27" />
    </filter>
    <filter
       inkscape:collect="always"
       id="filter14506-80-6-94"
       style="color-interpolation-filters:sRGB">
      <feGaussianBlur
         inkscape:collect="always"
         stdDeviation="0.70957443"
         id="feGaussianBlur14508-15-9-1" />
    </filter>
    <filter
       inkscape:collect="always"
       id="filter14506-80-6-6"
       style="color-interpolation-filters:sRGB">
      <feGaussianBlur
         inkscape:collect="always"
         stdDeviation="0.70957443"
         id="feGaussianBlur14508-15-9-0" />
    </filter>
    <filter
       inkscape:collect="always"
       id="filter14506-80-6-66"
       style="color-interpolation-filters:sRGB">
      <feGaussianBlur
         inkscape:collect="always"
         stdDeviation="0.70957443"
         id="feGaussianBlur14508-15-9-6" />
    </filter>
    <filter
       inkscape:collect="always"
       id="filter14506-80-6-67"
       style="color-interpolation-filters:sRGB">
      <feGaussianBlur
         inkscape:collect="always"
         stdDeviation="0.70957443"
         id="feGaussianBlur14508-15-9-14" />
    </filter>
    <filter
       inkscape:collect="always"
       id="filter14506-80-6-61"
       style="color-interpolation-filters:sRGB">
      <feGaussianBlur
         inkscape:collect="always"
         stdDeviation="0.70957443"
         id="feGaussianBlur14508-15-9-2" />
    </filter>
    <filter
       inkscape:collect="always"
       id="filter14506-80-6-4"
       style="color-interpolation-filters:sRGB">
      <feGaussianBlur
         inkscape:collect="always"
         stdDeviation="0.70957443"
         id="feGaussianBlur14508-15-9-9" />
    </filter>
    <filter
       inkscape:collect="always"
       id="filter14506-80-6-2"
       style="color-interpolation-filters:sRGB">
      <feGaussianBlur
         inkscape:collect="always"
         stdDeviation="0.70957443"
         id="feGaussianBlur14508-15-9-3" />
    </filter>
    <filter
       inkscape:collect="always"
       id="filter14506-80-6-1"
       style="color-interpolation-filters:sRGB">
      <feGaussianBlur
         inkscape:collect="always"
         stdDeviation="0.70957443"
         id="feGaussianBlur14508-15-9-5" />
    </filter>
    <filter
       inkscape:collect="always"
       id="filter14506-80-6-3"
       style="color-interpolation-filters:sRGB">
      <feGaussianBlur
         inkscape:collect="always"
         stdDeviation="0.70957443"
         id="feGaussianBlur14508-15-9-16" />
    </filter>
    <filter
       inkscape:collect="always"
       id="filter14506-80-6-12"
       style="color-interpolation-filters:sRGB">
      <feGaussianBlur
         inkscape:collect="always"
         stdDeviation="0.70957443"
         id="feGaussianBlur14508-15-9-60" />
    </filter>
    <filter
       inkscape:collect="always"
       id="filter14506-80-6-121"
       style="color-interpolation-filters:sRGB">
      <feGaussianBlur
         inkscape:collect="always"
         stdDeviation="0.70957443"
         id="feGaussianBlur14508-15-9-4" />
    </filter>
    <filter
       inkscape:collect="always"
       id="filter14506-80-6-82"
       style="color-interpolation-filters:sRGB">
      <feGaussianBlur
         inkscape:collect="always"
         stdDeviation="0.70957443"
         id="feGaussianBlur14508-15-9-45" />
    </filter>
    <radialGradient
       inkscape:collect="always"
       xlink:href="#linearGradient11737"
       id="radialGradient3648"
       gradientUnits="userSpaceOnUse"
       cx="339.39481"
       cy="170.44995"
       fx="339.39481"
       fy="170.44995"
       r="68.636078"
       gradientTransform="matrix(1.9926479,0,0,1.9926479,-312.28346,-60.470837)" />
    <linearGradient
       id="linearGradient11737">
      <stop
         style="stop-color:#ffffff;stop-opacity:0;"
         offset="0"
         id="stop11739" />
      <stop
         id="stop11741"
         offset="0.7044031"
         style="stop-color:#0046af;stop-opacity:0;" />
      <stop
         id="stop11743"
         offset="0.86842364"
         style="stop-color:#0044ab;stop-opacity:0.42352942;" />
      <stop
         style="stop-color:#003996;stop-opacity:0.64999998;"
         offset="0.95386213"
         id="stop11745" />
      <stop
         style="stop-color:#002c80;stop-opacity:1;"
         offset="1"
         id="stop11747" />
    </linearGradient>
    <radialGradient
       inkscape:collect="always"
       xlink:href="#linearGradient11729"
       id="radialGradient3650"
       gradientUnits="userSpaceOnUse"
       gradientTransform="matrix(2.0322283,0,0,2.0322283,-350.33294,-138.65768)"
       cx="360.3381"
       cy="131.75188"
       fx="360.3381"
       fy="131.75188"
       r="68.136078" />
    <linearGradient
       id="linearGradient11729">
      <stop
         id="stop11731"
         offset="0"
         style="stop-color:#5bcaff;stop-opacity:1;" />
      <stop
         id="stop11733"
         offset="1"
         style="stop-color:#0071de;stop-opacity:1;" />
    </linearGradient>
    <filter
       height="1.3200001"
       y="-0.16"
       width="1.3200001"
       x="-0.16"
       id="filter4645"
       inkscape:collect="always"
       style="color-interpolation-filters:sRGB">
      <feGaussianBlur
         id="feGaussianBlur4647"
         stdDeviation="9.0848104"
         inkscape:collect="always" />
    </filter>
    <filter
       inkscape:collect="always"
       id="filter15293"
       style="color-interpolation-filters:sRGB">
      <feGaussianBlur
         inkscape:collect="always"
         stdDeviation="2.6999294"
         id="feGaussianBlur15295" />
    </filter>
    <linearGradient
       inkscape:collect="always"
       xlink:href="#linearGradient5073"
       id="linearGradient3652"
       gradientUnits="userSpaceOnUse"
       gradientTransform="matrix(-1.8441075,-1.0930478,-0.64516084,1.6818335,1531.449,615.67974)"
       x1="530.65643"
       y1="92.872658"
       x2="571.87354"
       y2="138.7977" />
    <linearGradient
       id="linearGradient5073">
      <stop
         id="stop5075"
         offset="0"
         style="stop-color:#ffffff;stop-opacity:1;" />
      <stop
         id="stop5077"
         offset="1"
         style="stop-color:#ffffff;stop-opacity:0;" />
    </linearGradient>
  </defs>
  <sodipodi:namedview
     id="base"
     pagecolor="#ffffff"
     bordercolor="#666666"
     borderopacity="1.0"
     inkscape:pageopacity="0.0"
     inkscape:pageshadow="2"
     inkscape:zoom="0.98994949"
     inkscape:cx="336.98721"
     inkscape:cy="228.69372"
     inkscape:document-units="px"
     inkscape:current-layer="layer1"
     showgrid="false"
     inkscape:window-width="1440"
     inkscape:window-height="835"
     inkscape:window-x="0"
     inkscape:window-y="0"
     inkscape:window-maximized="1" />
  <metadata
     id="metadata5625">
    <rdf:RDF>
      <cc:Work
         rdf:about="">
        <dc:format>image/svg+xml</dc:format>
        <dc:type
           rdf:resource="http://purl.org/dc/dcmitype/StillImage" />
        <dc:title></dc:title>
      </cc:Work>
    </rdf:RDF>
  </metadata>
  <g
     inkscape:label="Camada 1"
     inkscape:groupmode="layer"
     id="layer1"
     transform="translate(0,-662.59843)">
    <g
       id="g6626"
       transform="matrix(0.69525918,0,0,0.69954733,-56.960408,661.19673)">
      <path
         inkscape:connector-curvature="0"
         style="color:#000000;display:inline;overflow:visible;visibility:visible;fill:#ffffff;fill-opacity:1;fill-rule:nonzero;stroke:#ffffff;stroke-width:9.1604166;stroke-linecap:round;stroke-linejoin:round;stroke-miterlimit:4;stroke-dasharray:none;stroke-opacity:1;marker:none;enable-background:accumulate"
         d="m 456.79577,20.005349 c -3.43819,0.03023 -6.8685,1.251918 -9.96195,3.95043 l -58.16865,66.81381 c -5.82474,6.215563 -7.25814,13.078441 -1.48857,20.954451 22.09918,25.26277 46.60363,43.68374 46.60363,43.68374 4.36547,3.00995 8.83701,2.20687 13.39711,-1.43131 l 29.37058,-30.40114 c 4.97061,-5.83577 3.5109,-10.81356 -1.03054,-15.3437 l -31.48894,-30.172138 -3.03439,3.034388 26.90873,35.49663 -27.99652,29.19883 -40.76386,-41.85165 59.37095,-62.691624 69.33291,75.000934 -66.9283,67.38632 C 437.54054,159.96311 405.5385,144.84611 370.00082,143.38473 L 365.82138,23.841274 c 0,0 -41.32907,-11.87038 -44.14176,6.755807 -2.81296,18.626188 29.54235,12.0803 29.54235,12.0803 l 9.04591,100.707349 c -24.50435,0.72269 -47.4017,7.87641 -66.98555,19.92391 L 218.05241,91.342115 c -7.31606,-8.130786 -24.22804,-8.643458 -31.48894,-0.229011 l -76.833,81.928476 c -6.44695,6.5993 -7.71384,15.48679 -1.54582,22.55753 l 66.75654,58.16865 c 6.21582,5.82474 13.07844,7.25815 20.95446,1.48857 25.26302,-22.09918 43.68374,-46.60362 43.68374,-46.60362 3.00994,-4.36548 2.20661,-8.83702 -1.43132,-13.39711 l -30.40113,-29.37059 c -5.83603,-4.97061 -10.81329,-3.45364 -15.3437,1.0878 l -30.17213,31.43168 3.03439,3.09164 35.49662,-26.96598 29.19883,27.99653 -41.85166,40.76385 -62.6916,-59.37095 75.00091,-69.33291 68.35962,67.95885 c -14.03899,13.90666 -25.01875,30.88792 -31.94696,49.80976 -0.76139,2.07949 -1.51444,4.1721 -2.1756,6.29779 -3.34372,10.75039 -5.33741,22.06695 -5.89702,33.77904 l -120.68849,4.17944 c 0,0 -11.927633,41.32907 6.69855,44.14176 18.62619,2.81296 12.0803,-29.54235 12.0803,-29.54235 l 101.79514,-9.04591 c 0.55543,24.31902 7.45104,47.09779 19.17962,66.64204 l -72.31004,75.63069 c -8.13104,7.31578 -8.64346,24.17078 -0.22901,31.43168 l 81.92848,76.833 c 6.59929,6.44695 15.48706,7.77109 22.55753,1.60307 l 58.16864,-66.81379 c 5.82475,-6.21582 7.25815,-13.07844 1.48857,-20.95446 -22.09918,-25.26302 -46.60362,-43.68373 -46.60362,-43.68373 -4.36547,-3.00995 -8.83676,-2.20662 -13.39711,1.43131 l -29.37059,30.40113 c -4.97035,5.83603 -3.45364,10.81329 1.0878,15.3437 l 31.43168,30.17213 3.09164,-3.03439 -26.96597,-35.43936 27.99652,-29.25609 40.76386,41.85166 -59.37096,62.6916 -69.3329,-75.00091 68.07335,-68.53137 c 23.0049,23.74329 54.5952,39.13094 89.77208,41.10737 l 4.17944,119.8297 c 0,0 41.32907,11.87038 44.14176,-6.7558 2.81297,-18.62619 -29.54234,-12.0803 -29.54234,-12.0803 l -8.98866,-100.82184 c 1.64589,-0.0245 3.29253,-0.0319 4.92372,-0.11451 22.83439,-1.15747 44.20002,-7.9907 62.69161,-19.06512 l 74.60014,71.33675 c 7.31606,8.13104 24.17079,8.64346 31.43168,0.22901 l 76.833,-81.92848 c 6.44696,-6.59929 7.77109,-15.48678 1.60307,-22.55752 l -66.81379,-58.16865 c -6.21556,-5.82474 -13.07843,-7.25815 -20.95445,-1.48857 -25.26276,22.09918 -43.68374,46.60362 -43.68374,46.60362 -3.00995,4.36547 -2.14962,8.83676 1.48857,13.39711 l 30.34388,29.37059 c 5.83577,4.97061 10.81356,3.45364 15.3437,-1.0878 l 30.17212,-31.43168 -3.03439,-3.03439 -35.43936,26.90872 -29.25608,-27.99652 41.85165,-40.76386 62.69161,59.37096 -75.00092,69.3329 -67.50082,-67.0428 c 24.01147,-23.21409 39.46172,-55.20333 41.22188,-90.80263 l 118.68465,-4.17944 c 0,0 11.87038,-41.32907 -6.75581,-44.14176 -18.62619,-2.81296 -12.0803,29.54234 -12.0803,29.54234 l -99.73404,8.93141 c -0.0289,-1.31817 -0.0482,-2.64179 -0.1145,-3.95043 -1.18419,-23.36112 -8.27849,-45.1685 -19.80941,-63.95116 l 70.99324,-74.25663 c 8.13078,-7.31606 8.70071,-24.17079 0.28626,-31.43168 L 469.39135,25.558852 c -3.71195,-3.626408 -8.17505,-5.592343 -12.59558,-5.553503 z m -140.6124,47.290653 c -5.68129,-0.03719 -10.4242,2.159165 -12.36656,6.297787 -3.10778,6.62179 2.21235,15.716765 11.90854,20.26744 9.69619,4.550676 20.07953,2.843119 23.18731,-3.778672 3.10778,-6.62179 -2.26961,-15.659513 -11.9658,-20.210188 -3.63606,-1.706494 -7.35471,-2.554089 -10.76349,-2.576367 z m 14.1414,36.011908 c -5.68129,-0.0372 -10.48146,2.21642 -12.42382,6.35504 -3.10778,6.62179 2.2696,15.65949 11.9658,20.21017 9.69619,4.55067 20.02227,2.84312 23.13005,-3.77867 3.10778,-6.62179 -2.21235,-15.6595 -11.90854,-20.21017 -3.63607,-1.7065 -7.35472,-2.55409 -10.76349,-2.57637 z m 234.56392,115.42125 c -5.92391,-0.0678 -12.56232,4.94643 -16.25974,12.82459 -4.55067,9.69619 -2.90037,20.07952 3.72142,23.1873 6.62179,3.10778 15.6595,-2.2696 20.21017,-11.96579 4.55068,-9.69619 2.90038,-20.07953 -3.72142,-23.18731 -1.24158,-0.58271 -2.58336,-0.84314 -3.95043,-0.85879 z m -36.01188,14.1414 c -5.92392,-0.0678 -12.61958,4.88917 -16.317,12.76733 -4.55067,9.69619 -2.84312,20.07952 3.77867,23.1873 6.6218,3.10779 15.6595,-2.21235 20.21017,-11.90854 4.55068,-9.69619 2.90038,-20.07952 -3.72141,-23.1873 -1.24159,-0.58272 -2.58337,-0.84315 -3.95043,-0.85879 z m -322.50394,55.64953 c -5.92391,-0.0678 -12.61957,4.94642 -16.31699,12.82458 -4.55067,9.6962 -2.84312,20.07953 3.77867,23.18731 6.62179,3.10778 15.6595,-2.21235 20.21017,-11.90854 4.55068,-9.69619 2.90037,-20.07953 -3.72142,-23.18731 -1.24158,-0.58271 -2.58336,-0.90039 -3.95043,-0.91604 z m -36.06914,14.14139 c -5.92391,-0.0678 -12.56232,4.94643 -16.25974,12.82459 -4.55067,9.69619 -2.90037,20.07952 3.72142,23.1873 6.62179,3.10779 15.71675,-2.2696 20.26742,-11.96579 4.55068,-9.69619 2.84312,-20.07953 -3.77867,-23.18731 -1.24158,-0.58271 -2.58336,-0.84314 -3.95043,-0.85879 z M 385.9743,425.81184 c -5.68129,-0.0372 -10.42421,2.21642 -12.36656,6.35504 -3.10778,6.62179 2.21235,15.65949 11.90854,20.21017 9.69619,4.55068 20.07952,2.84312 23.1873,-3.77867 3.10779,-6.62179 -2.21235,-15.6595 -11.90854,-20.21017 -3.63606,-1.7065 -7.41197,-2.55409 -10.82074,-2.57637 z m 14.14139,36.06914 c -5.68129,-0.0372 -10.48146,2.15917 -12.42381,6.29779 -3.10778,6.62179 2.2696,15.65949 11.96579,20.21017 9.69619,4.55067 20.07953,2.90037 23.18731,-3.72142 3.10778,-6.62179 -2.2696,-15.65949 -11.9658,-20.21017 -3.63606,-1.70649 -7.35471,-2.55409 -10.76349,-2.57637 z"
         id="path6423" />
      <path
         inkscape:connector-curvature="0"
         id="path20109"
         d="m 328.0974,241.96317 -127.99055,-127.22073 -75.02188,69.3437 62.69504,59.36598 41.86498,-40.74952 -29.23137,-28.01636 -35.47135,26.93925 -3.04487,-3.06484 30.19318,-31.4573 c 4.53041,-4.54144 9.48132,-6.01831 15.31735,-1.04771 l 30.40015,29.34904 c 3.63793,4.56009 4.44163,9.03718 1.43169,13.40264 0,0 -18.39847,24.49478 -43.66149,46.59395 -7.87602,5.76958 -14.72166,4.34341 -20.93748,-1.48133 l -66.81047,-58.17907 c -6.16801,-7.07074 -4.85031,-15.92591 1.59664,-22.52519 l 76.83546,-81.968382 c 7.26089,-8.414441 24.11919,-7.876014 31.43524,0.254769 L 351.67764,219.63208 Z"
         style="color:#000000;display:inline;overflow:visible;visibility:visible;fill:#ff7d23;fill-opacity:1;fill-rule:nonzero;stroke:none;stroke-width:2.59126377;marker:none;enable-background:accumulate"
         sodipodi:nodetypes="cccccccccccccccccccc" />
      <path
         transform="matrix(0,-2.3257173,2.3257173,0,3130.2089,-2893.0032)"
         sodipodi:nodetypes="cccccccccccccccccccccccccccccccccc"
         inkscape:connector-curvature="0"
         id="path20111"
         d="m -1323.2724,-1299.9234 c -1.0643,-0.099 -2.0814,0.2102 -3.1562,1.125 -0.02,0.017 -0.042,0.014 -0.063,0.031 l -24.7812,28.5313 c -0.02,0.021 -0.041,0.042 -0.062,0.062 -1.033,1.1023 -1.5008,2.0454 -1.5937,2.9062 -0.091,0.8461 0.1372,1.7967 1.0937,3.125 0.017,0.023 0.014,0.039 0.031,0.063 9.2143,10.4941 19.3609,18.1454 19.5,18.25 0.8033,0.6802 2.5621,0.8617 3.2946,0.3254 l 12.5021,-13.4846 c 0.7731,-1.44 0.092,-2.7525 -0.7664,-3.6221 l -11.7412,-13.0598 11.8974,13.6223 c 0.6453,0.8488 -0.051,1.5235 -0.7827,2.2991 l -12.0718,12.5365 c -0.8378,0.8893 -1.5643,1.3557 -2.4188,0.4824 l -17.7267,-17.7558 c -0.815,-0.8294 -0.8295,-2.3111 -0.031,-3.1563 l 25.5312,-26.9687 c 0.8561,-0.8928 2.4733,-0.8776 3.3126,0.031 l 29.8124,32.25 c 0.7806,0.8423 0.7661,2.2983 -0.031,3.125 l -53.1562,53.4687 6.4374,6.8125 53.4376,-55.875 c 0.04,-0.043 0.082,-0.085 0.125,-0.125 1.1209,-1.0087 1.9378,-3.0223 1.9687,-5.0938 0.031,-2.0714 -0.7094,-4.0211 -1.8437,-5 -0.021,-0.02 -0.042,-0.041 -0.063,-0.062 l -35.25,-33.0626 c -0.01,-0.01 -0.021,-0.021 -0.031,-0.031 -1.1159,-1.0901 -2.2918,-1.6494 -3.375,-1.75 z"
         style="color:#000000;display:inline;overflow:visible;visibility:visible;opacity:0.6857143;fill:#ffb44f;fill-opacity:1;fill-rule:nonzero;stroke:none;stroke-width:2.59126377;marker:none;filter:url(#filter14511);enable-background:accumulate" />
      <path
         transform="matrix(2.3257173,0,0,2.3257173,3535.272,3046.5118)"
         inkscape:connector-curvature="0"
         id="path20113"
         d="m -1473.2089,-1233.1614 35.1032,-37.1835 c 0,0 2.8603,-1.6468 5.3739,-1.6468 2.5135,0 4.8538,2.1669 4.8538,2.1669 l 33.4564,31.6362 -1.8202,0.5201 -34.1498,-31.8963 c 0,0 -1.6468,-1.0401 -3.727,-0.7801 -2.0802,0.2601 -3.9004,1.8202 -3.9004,1.8202 z"
         style="color:#000000;display:inline;overflow:visible;visibility:visible;opacity:0.56734691;fill:#ffffff;fill-opacity:1;fill-rule:nonzero;stroke:none;stroke-width:1px;marker:none;filter:url(#filter14506-80-6-24);enable-background:accumulate" />
      <path
         style="color:#000000;display:inline;overflow:visible;visibility:visible;fill:#ff7d23;fill-opacity:1;fill-rule:nonzero;stroke:none;stroke-width:2.59126377;marker:none;enable-background:accumulate"
         d="m 259.74493,279.48396 -133.22748,11.89295 c 0,0 6.54544,32.32666 -12.08074,29.51371 -18.626181,-2.81269 -6.71826,-44.11876 -6.71826,-44.11876 l 152.88534,-5.30338 z"
         id="path20115"
         inkscape:connector-curvature="0"
         sodipodi:nodetypes="ccsccc" />
      <path
         style="color:#000000;display:inline;overflow:visible;visibility:visible;opacity:0.6857143;fill:#ffb44f;fill-opacity:1;fill-rule:nonzero;stroke:none;stroke-width:2.59126377;marker:none;filter:url(#filter14511-1);enable-background:accumulate"
         d="m -1269.6991,-1208.0559 c -1.0072,0.083 -1.9322,0.2662 -2.6875,0.5312 -1.5106,0.5299 -2.2819,1.1806 -2.5,2.625 -0.2411,1.5967 0.1437,2.1992 0.9063,2.7812 0.7625,0.5821 2.1451,0.987 3.6562,1.125 3.0223,0.2762 6.375,-0.375 6.375,-0.375 0.8234,-0.163 1.7118,0.5072 1.7812,1.3438 l 3.7931,44.1749 1.1389,-0.01 -1.6194,-50.9477 c -1.2298,-0.3219 -4.1371,-1.0363 -7.6563,-1.25 -1.0938,-0.067 -2.1803,-0.083 -3.1875,0 z"
         id="path20117"
         inkscape:connector-curvature="0"
         sodipodi:nodetypes="ccscccccccccc"
         transform="matrix(-0.00227188,-2.3257162,2.3257162,-0.00227188,2914.0736,-2652.0775)"
         inkscape:transform-center-x="-24.590277"
         inkscape:transform-center-y="6.7306959" />
      <path
         transform="matrix(2.3257173,0,0,2.3257173,3535.272,3046.5118)"
         inkscape:connector-curvature="0"
         id="path20119"
         d="m -1420.4928,-1191.5216 c 0,0 -51.7161,1.3282 -52.0482,1.4942 -0.332,0.166 -1.3282,5.4787 -1.3282,6.5579 0,1.0791 0.3321,3.4865 0.3321,3.4865 0,0 1.2452,-8.3012 1.9093,-8.6332 0.664,-0.3321 51.135,-1.9923 51.135,-1.9923 z"
         style="color:#000000;display:inline;overflow:visible;visibility:visible;opacity:0.56734691;fill:#ffffff;fill-opacity:1;fill-rule:nonzero;stroke:none;stroke-width:1px;marker:none;filter:url(#filter14506-80-6-946);enable-background:accumulate" />
      <path
         id="path20121"
         d="m 213.72121,312.75525 a 13.244624,19.393914 25.141872 0 1 -20.22953,11.92937 13.244624,19.393914 25.141872 0 1 -3.75009,-23.18362 13.244624,19.393914 25.141872 0 1 20.22953,-11.92938 13.244624,19.393914 25.141872 0 1 3.75009,23.18363 z"
         style="color:#000000;display:inline;overflow:visible;visibility:visible;fill:#ff7d23;fill-opacity:1;fill-rule:nonzero;stroke:none;stroke-width:2.59126377;marker:none;enable-background:accumulate"
         inkscape:connector-curvature="0" />
      <path
         id="path20123"
         d="m 177.68591,326.87652 a 13.244624,19.393914 25.141872 0 1 -20.22953,11.92937 13.244624,19.393914 25.141872 0 1 -3.75009,-23.18362 13.244624,19.393914 25.141872 0 1 20.22953,-11.92938 13.244624,19.393914 25.141872 0 1 3.75009,23.18363 z"
         style="color:#000000;display:inline;overflow:visible;visibility:visible;fill:#ff7d23;fill-opacity:1;fill-rule:nonzero;stroke:none;stroke-width:2.59126377;marker:none;enable-background:accumulate"
         inkscape:connector-curvature="0" />
      <path
         id="path20125"
         d="m -143.65714,505.67648 a 4.8000002,7.0285716 0 0 1 -4.8,7.02857 4.8000002,7.0285716 0 0 1 -4.8,-7.02857 4.8000002,7.0285716 0 0 1 4.8,-7.02857 4.8000002,7.0285716 0 0 1 4.8,7.02857 z"
         style="color:#000000;display:inline;overflow:visible;visibility:visible;opacity:0.6857143;fill:#ffb44f;fill-opacity:1;fill-rule:nonzero;stroke:none;stroke-width:2.99897122;marker:none;filter:url(#filter14511-9);enable-background:accumulate"
         transform="matrix(1.8191515,0.85377454,-0.85377454,1.8191515,904.28193,-488.77189)"
         inkscape:connector-curvature="0" />
      <path
         id="path20127"
         d="m -143.65714,505.67648 a 4.8000002,7.0285716 0 0 1 -4.8,7.02857 4.8000002,7.0285716 0 0 1 -4.8,-7.02857 4.8000002,7.0285716 0 0 1 4.8,-7.02857 4.8000002,7.0285716 0 0 1 4.8,7.02857 z"
         style="color:#000000;display:inline;overflow:visible;visibility:visible;opacity:0.6857143;fill:#ffb44f;fill-opacity:1;fill-rule:nonzero;stroke:none;stroke-width:3.10946083;marker:none;filter:url(#filter14511-3);enable-background:accumulate"
         transform="matrix(1.754511,0.82343706,-0.82343706,1.754511,842.54056,-447.28853)"
         inkscape:connector-curvature="0" />
      <path
         sodipodi:nodetypes="cccccccccccccccccccc"
         style="color:#000000;display:inline;overflow:visible;visibility:visible;fill:#ff7d23;fill-opacity:1;fill-rule:nonzero;stroke:none;stroke-width:2.59126377;marker:none;enable-background:accumulate"
         d="m 397.86869,316.60867 127.99081,127.22073 75.02188,-69.34396 -62.69504,-59.36572 -41.86498,40.74926 29.2311,28.01662 35.47135,-26.93924 3.04514,3.06457 -30.19345,31.45731 c -4.53014,4.54144 -9.48131,6.0183 -15.31708,1.0477 l -30.40015,-29.34877 c -3.63819,-4.56035 -4.44163,-9.03718 -1.43169,-13.40265 0,0 18.39846,-24.49504 43.66123,-46.59421 7.87601,-5.76958 14.72192,-4.34314 20.93748,1.48159 l 66.81046,58.17882 c 6.16802,7.07073 4.85031,15.9259 -1.59664,22.52518 l -76.83546,81.96838 c -7.26089,8.41445 -24.11919,7.87628 -31.43524,-0.25476 L 374.28845,338.93924 Z"
         id="path20129"
         inkscape:connector-curvature="0" />
      <path
         transform="matrix(0,2.3257173,-2.3257173,0,-2404.2429,3451.5749)"
         style="color:#000000;display:inline;overflow:visible;visibility:visible;opacity:0.6857143;fill:#ffb44f;fill-opacity:1;fill-rule:nonzero;stroke:none;stroke-width:2.59126377;marker:none;filter:url(#filter14511);enable-background:accumulate"
         d="m -1323.2724,-1299.9234 c -1.0643,-0.099 -2.0814,0.2102 -3.1562,1.125 -0.02,0.017 -0.042,0.014 -0.063,0.031 l -24.7812,28.5313 c -0.02,0.021 -0.041,0.042 -0.062,0.062 -1.033,1.1023 -1.5008,2.0454 -1.5937,2.9062 -0.091,0.8461 0.1372,1.7967 1.0937,3.125 0.017,0.023 0.014,0.039 0.031,0.063 9.2143,10.4941 19.3609,18.1454 19.5,18.25 0.8033,0.6802 2.5621,0.8617 3.2946,0.3254 l 12.5021,-13.4846 c 0.7731,-1.44 0.092,-2.7525 -0.7664,-3.6221 l -11.7412,-13.0598 11.8974,13.6223 c 0.6453,0.8488 -0.051,1.5235 -0.7827,2.2991 l -12.0718,12.5365 c -0.8378,0.8893 -1.5643,1.3557 -2.4188,0.4824 l -17.7267,-17.7558 c -0.815,-0.8294 -0.8295,-2.3111 -0.031,-3.1563 l 25.5312,-26.9687 c 0.8561,-0.8928 2.4733,-0.8776 3.3126,0.031 l 29.8124,32.25 c 0.7806,0.8423 0.7661,2.2983 -0.031,3.125 l -53.1562,53.4687 6.4374,6.8125 53.4376,-55.875 c 0.04,-0.043 0.082,-0.085 0.125,-0.125 1.1209,-1.0087 1.9378,-3.0223 1.9687,-5.0938 0.031,-2.0714 -0.7094,-4.0211 -1.8437,-5 -0.021,-0.02 -0.042,-0.041 -0.063,-0.062 l -35.25,-33.0626 c -0.01,-0.01 -0.021,-0.021 -0.031,-0.031 -1.1159,-1.0901 -2.2918,-1.6494 -3.375,-1.75 z"
         id="path20131"
         inkscape:connector-curvature="0"
         sodipodi:nodetypes="cccccccccccccccccccccccccccccccccc" />
      <path
         sodipodi:nodetypes="ccsccc"
         inkscape:connector-curvature="0"
         id="path20133"
         d="m 466.22142,279.08789 133.22721,-11.89321 c 0,0 -6.54517,-32.32667 12.08101,-29.51372 18.62618,2.8127 6.718,44.11876 6.718,44.11876 l -152.88508,5.30338 z"
         style="color:#000000;display:inline;overflow:visible;visibility:visible;fill:#ff7d23;fill-opacity:1;fill-rule:nonzero;stroke:none;stroke-width:2.59126377;marker:none;enable-background:accumulate" />
      <path
         inkscape:transform-center-y="-6.7306757"
         inkscape:transform-center-x="24.590278"
         transform="matrix(0.00227188,2.3257162,-2.3257162,0.00227188,-2188.1856,3209.797)"
         sodipodi:nodetypes="ccscccccccccc"
         inkscape:connector-curvature="0"
         id="path20135"
         d="m -1269.6991,-1208.0559 c -1.0072,0.083 -1.9322,0.2662 -2.6875,0.5312 -1.5106,0.5299 -2.2819,1.1806 -2.5,2.625 -0.2411,1.5967 0.1437,2.1992 0.9063,2.7812 0.7625,0.5821 2.1451,0.987 3.6562,1.125 3.0223,0.2762 6.375,-0.375 6.375,-0.375 0.8234,-0.163 1.7118,0.5072 1.7812,1.3438 l 3.7931,44.1749 1.1389,-0.01 -1.6194,-50.9477 c -1.2298,-0.3219 -4.1371,-1.0363 -7.6563,-1.25 -1.0938,-0.067 -2.1803,-0.083 -3.1875,0 z"
         style="color:#000000;display:inline;overflow:visible;visibility:visible;opacity:0.6857143;fill:#ffb44f;fill-opacity:1;fill-rule:nonzero;stroke:none;stroke-width:2.59126377;marker:none;filter:url(#filter14511-1);enable-background:accumulate" />
      <path
         transform="matrix(2.3257173,0,0,2.3257173,3535.272,3046.5118)"
         sodipodi:nodetypes="ccccsccc"
         inkscape:connector-curvature="0"
         id="path20137"
         d="m -1306.156,-1189.687 45.2219,-4.3176 c 0,0 -1.9984,-11.6018 1.9428,-12.268 3.9413,-0.6661 4.5753,2.9001 4.5753,2.9001 0,0 -2.238,-2.5397 -4.4618,-1.4703 -2.1536,1.0356 -0.724,11.5043 -0.724,11.5043 l -46.4838,4.3657 z"
         style="color:#000000;display:inline;overflow:visible;visibility:visible;opacity:0.56734691;fill:#ffffff;fill-opacity:1;fill-rule:nonzero;stroke:none;stroke-width:1px;marker:none;filter:url(#filter14506-80-6-9);enable-background:accumulate" />
      <path
         id="path20139"
         d="m 512.2449,245.81622 a 13.244624,19.393914 25.141872 0 1 20.22953,-11.92937 13.244624,19.393914 25.141872 0 1 3.75009,23.18362 13.244624,19.393914 25.141872 0 1 -20.22953,11.92938 13.244624,19.393914 25.141872 0 1 -3.75009,-23.18363 z"
         style="color:#000000;display:inline;overflow:visible;visibility:visible;fill:#ff7d23;fill-opacity:1;fill-rule:nonzero;stroke:none;stroke-width:2.59126377;marker:none;enable-background:accumulate"
         inkscape:connector-curvature="0" />
      <path
         id="path20141"
         d="m 548.28042,231.69502 a 13.244624,19.393914 25.141872 0 1 20.22953,-11.92937 13.244624,19.393914 25.141872 0 1 3.75009,23.18362 13.244624,19.393914 25.141872 0 1 -20.22953,11.92938 13.244624,19.393914 25.141872 0 1 -3.75009,-23.18363 z"
         style="color:#000000;display:inline;overflow:visible;visibility:visible;fill:#ff7d23;fill-opacity:1;fill-rule:nonzero;stroke:none;stroke-width:2.59126377;marker:none;enable-background:accumulate"
         inkscape:connector-curvature="0" />
      <path
         id="path20143"
         d="m -143.65714,505.67648 a 4.8000002,7.0285716 0 0 1 -4.8,7.02857 4.8000002,7.0285716 0 0 1 -4.8,-7.02857 4.8000002,7.0285716 0 0 1 4.8,-7.02857 4.8000002,7.0285716 0 0 1 4.8,7.02857 z"
         style="color:#000000;display:inline;overflow:visible;visibility:visible;opacity:0.6857143;fill:#ffb44f;fill-opacity:1;fill-rule:nonzero;stroke:none;stroke-width:2.99897122;marker:none;filter:url(#filter14511-9);enable-background:accumulate"
         transform="matrix(-1.8191515,-0.85377454,0.85377454,-1.8191515,-177.18961,1043.0521)"
         inkscape:connector-curvature="0" />
      <path
         id="path20145"
         d="m -143.65714,505.67648 a 4.8000002,7.0285716 0 0 1 -4.8,7.02857 4.8000002,7.0285716 0 0 1 -4.8,-7.02857 4.8000002,7.0285716 0 0 1 4.8,-7.02857 4.8000002,7.0285716 0 0 1 4.8,7.02857 z"
         style="color:#000000;display:inline;overflow:visible;visibility:visible;opacity:0.6857143;fill:#ffb44f;fill-opacity:1;fill-rule:nonzero;stroke:none;stroke-width:3.10946083;marker:none;filter:url(#filter14511-3);enable-background:accumulate"
         transform="matrix(-1.754511,-0.82343706,0.82343706,-1.754511,-115.72692,1000.2571)"
         inkscape:connector-curvature="0" />
      <path
         sodipodi:nodetypes="cccccccccccccccccccc"
         style="color:#000000;display:inline;overflow:visible;visibility:visible;fill:#ff7d23;fill-opacity:1;fill-rule:nonzero;stroke:none;stroke-width:2.59126377;marker:none;enable-background:accumulate"
         d="m 325.66029,314.17157 -127.22073,127.99055 69.34396,75.02187 59.36572,-62.69503 -40.74925,-41.86498 -28.01663,29.23136 26.93925,35.47135 -3.06458,3.04488 -31.4573,-30.19319 c -4.54144,-4.5304 -6.01831,-9.48131 -1.04797,-15.31734 l 29.34904,-30.40015 c 4.56035,-3.63793 9.03718,-4.44164 13.40264,-1.43169 0,0 24.49504,18.39846 46.59422,43.66149 5.76958,7.87601 4.34314,14.72166 -1.4816,20.93748 l -58.17907,66.81046 c -7.07048,6.16802 -15.92564,4.85031 -22.52493,-1.59664 l -81.96838,-76.83546 c -8.41444,-7.26089 -7.87628,-24.11945 0.25477,-31.43524 L 303.32946,290.59133 Z"
         id="path20147"
         inkscape:connector-curvature="0" />
      <path
         transform="matrix(-2.3257173,0,0,-2.3257173,-2808.3988,-2490.359)"
         style="color:#000000;display:inline;overflow:visible;visibility:visible;opacity:0.6857143;fill:#ffb44f;fill-opacity:1;fill-rule:nonzero;stroke:none;stroke-width:2.59126377;marker:none;filter:url(#filter14511);enable-background:accumulate"
         d="m -1323.2724,-1299.9234 c -1.0643,-0.099 -2.0814,0.2102 -3.1562,1.125 -0.02,0.017 -0.042,0.014 -0.063,0.031 l -24.7812,28.5313 c -0.02,0.021 -0.041,0.042 -0.062,0.062 -1.033,1.1023 -1.5008,2.0454 -1.5937,2.9062 -0.091,0.8461 0.1372,1.7967 1.0937,3.125 0.017,0.023 0.014,0.039 0.031,0.063 9.2143,10.4941 19.3609,18.1454 19.5,18.25 0.8033,0.6802 2.5621,0.8617 3.2946,0.3254 l 12.5021,-13.4846 c 0.7731,-1.44 0.092,-2.7525 -0.7664,-3.6221 l -11.7412,-13.0598 11.8974,13.6223 c 0.6453,0.8488 -0.051,1.5235 -0.7827,2.2991 l -12.0718,12.5365 c -0.8378,0.8893 -1.5643,1.3557 -2.4188,0.4824 l -17.7267,-17.7558 c -0.815,-0.8294 -0.8295,-2.3111 -0.031,-3.1563 l 25.5312,-26.9687 c 0.8561,-0.8928 2.4733,-0.8776 3.3126,0.031 l 29.8124,32.25 c 0.7806,0.8423 0.7661,2.2983 -0.031,3.125 l -53.1562,53.4687 6.4374,6.8125 53.4376,-55.875 c 0.04,-0.043 0.082,-0.085 0.125,-0.125 1.1209,-1.0087 1.9378,-3.0223 1.9687,-5.0938 0.031,-2.0714 -0.7094,-4.0211 -1.8437,-5 -0.021,-0.02 -0.042,-0.041 -0.063,-0.062 l -35.25,-33.0626 c -0.01,-0.01 -0.021,-0.021 -0.031,-0.031 -1.1159,-1.0901 -2.2918,-1.6494 -3.375,-1.75 z"
         id="path20149"
         inkscape:connector-curvature="0"
         sodipodi:nodetypes="cccccccccccccccccccccccccccccccccc" />
      <path
         sodipodi:nodetypes="ccsccc"
         inkscape:connector-curvature="0"
         id="path20151"
         d="m 363.18108,382.52403 11.89294,133.22748 c 0,0 32.32694,-6.54544 29.51398,12.08074 -2.81269,18.62619 -44.11876,6.71827 -44.11876,6.71827 l -5.30338,-152.88534 z"
         style="color:#000000;display:inline;overflow:visible;visibility:visible;fill:#ff7d23;fill-opacity:1;fill-rule:nonzero;stroke:none;stroke-width:2.59126377;marker:none;enable-background:accumulate" />
      <path
         id="path20153"
         d="m 396.45255,428.54752 a 19.393914,13.244624 25.141872 0 1 11.92937,20.22953 19.393914,13.244624 25.141872 0 1 -23.18362,3.75009 19.393914,13.244624 25.141872 0 1 -11.92938,-20.22953 19.393914,13.244624 25.141872 0 1 23.18363,-3.75009 z"
         style="color:#000000;display:inline;overflow:visible;visibility:visible;fill:#ff7d23;fill-opacity:1;fill-rule:nonzero;stroke:none;stroke-width:2.59126377;marker:none;enable-background:accumulate"
         inkscape:connector-curvature="0" />
      <path
         id="path20155"
         d="m 410.57385,464.58304 a 19.393914,13.244624 25.141872 0 1 11.92937,20.22953 19.393914,13.244624 25.141872 0 1 -23.18362,3.75009 19.393914,13.244624 25.141872 0 1 -11.92938,-20.22953 19.393914,13.244624 25.141872 0 1 23.18363,-3.75009 z"
         style="color:#000000;display:inline;overflow:visible;visibility:visible;fill:#ff7d23;fill-opacity:1;fill-rule:nonzero;stroke:none;stroke-width:2.59126377;marker:none;enable-background:accumulate"
         inkscape:connector-curvature="0" />
      <path
         id="path20157"
         d="m -143.65714,505.67648 a 4.8000002,7.0285716 0 0 1 -4.8,7.02857 4.8000002,7.0285716 0 0 1 -4.8,-7.02857 4.8000002,7.0285716 0 0 1 4.8,-7.02857 4.8000002,7.0285716 0 0 1 4.8,7.02857 z"
         style="color:#000000;display:inline;overflow:visible;visibility:visible;opacity:0.6857143;fill:#ffb44f;fill-opacity:1;fill-rule:nonzero;stroke:none;stroke-width:2.99897122;marker:none;filter:url(#filter14511-9);enable-background:accumulate"
         transform="matrix(0.85377454,-1.8191515,1.8191515,0.85377454,-403.9832,-261.88321)"
         inkscape:connector-curvature="0" />
      <path
         id="path20159"
         d="m -143.65714,505.67648 a 4.8000002,7.0285716 0 0 1 -4.8,7.02857 4.8000002,7.0285716 0 0 1 -4.8,-7.02857 4.8000002,7.0285716 0 0 1 4.8,-7.02857 4.8000002,7.0285716 0 0 1 4.8,7.02857 z"
         style="color:#000000;display:inline;overflow:visible;visibility:visible;opacity:0.6857143;fill:#ffb44f;fill-opacity:1;fill-rule:nonzero;stroke:none;stroke-width:3.10946083;marker:none;filter:url(#filter14511-3);enable-background:accumulate"
         transform="matrix(0.82343706,-1.754511,1.754511,0.82343706,-361.4398,-200.97444)"
         inkscape:connector-curvature="0" />
      <path
         inkscape:connector-curvature="0"
         id="path20161"
         d="m 400.30579,244.40028 127.22073,-127.99081 -69.3437,-75.021883 -59.36598,62.695033 40.74952,41.86498 28.01636,-29.2311 -26.93924,-35.471348 3.06457,-3.045137 31.45757,30.193445 c 4.54144,4.53015 6.01831,9.48132 1.0477,15.31708 l -29.34903,30.40015 c -4.56009,3.6382 -9.03718,4.44164 -13.40265,1.4317 0,0 -24.49478,-18.39847 -46.59395,-43.66123 -5.76958,-7.87602 -4.3434,-14.721926 1.48133,-20.937482 L 446.5281,24.133215 c 7.07073,-6.168017 15.9259,-4.850314 22.52492,1.596635 l 81.96865,76.8352 c 8.41444,7.26089 7.87601,24.11945 -0.25477,31.4355 L 422.63688,267.98052 Z"
         style="color:#000000;display:inline;overflow:visible;visibility:visible;fill:#ff7d23;fill-opacity:1;fill-rule:nonzero;stroke:none;stroke-width:2.59126377;marker:none;enable-background:accumulate"
         sodipodi:nodetypes="cccccccccccccccccccc" />
      <path
         transform="matrix(2.3257173,0,0,2.3257173,3535.272,3046.5118)"
         sodipodi:nodetypes="cccccccccccccccccccccccccccccccccc"
         inkscape:connector-curvature="0"
         id="path20163"
         d="m -1323.2724,-1299.9234 c -1.0643,-0.099 -2.0814,0.2102 -3.1562,1.125 -0.02,0.017 -0.042,0.014 -0.063,0.031 l -24.7812,28.5313 c -0.02,0.021 -0.041,0.042 -0.062,0.062 -1.033,1.1023 -1.5008,2.0454 -1.5937,2.9062 -0.091,0.8461 0.1372,1.7967 1.0937,3.125 0.017,0.023 0.014,0.039 0.031,0.063 9.2143,10.4941 19.3609,18.1454 19.5,18.25 0.8033,0.6802 2.5621,0.8617 3.2946,0.3254 l 12.5021,-13.4846 c 0.7731,-1.44 0.092,-2.7525 -0.7664,-3.6221 l -11.7412,-13.0598 11.8974,13.6223 c 0.6453,0.8488 -0.051,1.5235 -0.7827,2.2991 l -12.0718,12.5365 c -0.8378,0.8893 -1.5643,1.3557 -2.4188,0.4824 l -17.7267,-17.7558 c -0.815,-0.8294 -0.8295,-2.3111 -0.031,-3.1563 l 25.5312,-26.9687 c 0.8561,-0.8928 2.4733,-0.8776 3.3126,0.031 l 29.8124,32.25 c 0.7806,0.8423 0.7661,2.2983 -0.031,3.125 l -53.1562,53.4687 6.4374,6.8125 53.4376,-55.875 c 0.04,-0.043 0.082,-0.085 0.125,-0.125 1.1209,-1.0087 1.9378,-3.0223 1.9687,-5.0938 0.031,-2.0714 -0.7094,-4.0211 -1.8437,-5 -0.021,-0.02 -0.042,-0.041 -0.063,-0.062 l -35.25,-33.0626 c -0.01,-0.01 -0.021,-0.021 -0.031,-0.031 -1.1159,-1.0901 -2.2918,-1.6494 -3.375,-1.75 z"
         style="color:#000000;display:inline;overflow:visible;visibility:visible;opacity:0.6857143;fill:#ffb44f;fill-opacity:1;fill-rule:nonzero;stroke:none;stroke-width:2.59126377;marker:none;filter:url(#filter14511);enable-background:accumulate" />
      <path
         style="color:#000000;display:inline;overflow:visible;visibility:visible;fill:#ff7d23;fill-opacity:1;fill-rule:nonzero;stroke:none;stroke-width:2.59126377;marker:none;enable-background:accumulate"
         d="M 362.78501,176.04755 350.89206,42.82033 c 0,0 -32.32667,6.545179 -29.51371,-12.081002 2.81269,-18.626182 44.11875,-6.718001 44.11875,-6.718001 l 5.30339,152.885083 z"
         id="path20165"
         inkscape:connector-curvature="0"
         sodipodi:nodetypes="ccsccc" />
      <path
         transform="matrix(2.3257173,0,0,2.3257173,3535.272,3046.5118)"
         style="color:#000000;display:inline;overflow:visible;visibility:visible;opacity:0.6857143;fill:#ffb44f;fill-opacity:1;fill-rule:nonzero;stroke:none;stroke-width:2.59126377;marker:none;filter:url(#filter14511-1);enable-background:accumulate"
         d="m -1374.9422,-1300.3744 c -1.0072,0.083 -1.9322,0.2662 -2.6875,0.5312 -1.5106,0.5299 -2.2819,1.1806 -2.5,2.625 -0.2411,1.5967 0.1437,2.1992 0.9063,2.7812 0.7625,0.5821 2.1451,0.987 3.6562,1.125 3.0223,0.2762 6.375,-0.375 6.375,-0.375 0.8234,-0.163 1.7118,0.5072 1.7812,1.3438 l 3.7931,44.1749 1.1389,-0.01 -1.6194,-50.9477 c -1.2298,-0.3219 -4.1371,-1.0363 -7.6563,-1.25 -1.0938,-0.067 -2.1803,-0.083 -3.1875,0 z"
         id="path20167"
         inkscape:connector-curvature="0"
         sodipodi:nodetypes="ccscccccccccc" />
      <path
         id="path20169"
         d="m 329.51362,130.02411 a 19.393914,13.244624 25.141872 0 1 -11.92937,-20.22953 19.393914,13.244624 25.141872 0 1 23.18362,-3.75009 19.393914,13.244624 25.141872 0 1 11.92938,20.22953 19.393914,13.244624 25.141872 0 1 -23.18363,3.75009 z"
         style="color:#000000;display:inline;overflow:visible;visibility:visible;fill:#ff7d23;fill-opacity:1;fill-rule:nonzero;stroke:none;stroke-width:2.59126377;marker:none;enable-background:accumulate"
         inkscape:connector-curvature="0" />
      <path
         transform="matrix(2.3257173,0,0,2.3257173,3535.272,3046.5118)"
         sodipodi:nodetypes="ccccsssc"
         inkscape:connector-curvature="0"
         id="path20171"
         d="m -1366.0757,-1296.8757 2.9879,48.4826 0.7523,0.041 -2.5177,-50.2026 c 0,0 -5.0273,-1.8468 -10.1572,-1.4364 -5.1299,0.4104 -5.1299,1.9494 -5.1299,2.2572 0,0.3078 2.9754,-0.7182 6.5663,-0.7182 3.5909,0 7.4983,1.5764 7.4983,1.5764 z"
         style="color:#000000;display:inline;overflow:visible;visibility:visible;opacity:0.56734691;fill:#ffffff;fill-opacity:1;fill-rule:nonzero;stroke:none;stroke-width:1px;marker:none;filter:url(#filter14506-80-3-8);enable-background:accumulate" />
      <path
         id="path20173"
         d="m 315.39212,93.98851 a 19.393914,13.244624 25.141872 0 1 -11.92937,-20.229527 19.393914,13.244624 25.141872 0 1 23.18362,-3.750091 19.393914,13.244624 25.141872 0 1 11.92938,20.229527 19.393914,13.244624 25.141872 0 1 -23.18363,3.750091 z"
         style="color:#000000;display:inline;overflow:visible;visibility:visible;fill:#ff7d23;fill-opacity:1;fill-rule:nonzero;stroke:none;stroke-width:2.59126377;marker:none;enable-background:accumulate"
         inkscape:connector-curvature="0" />
      <path
         transform="matrix(2.3257173,0,0,2.3257173,3535.272,3046.5118)"
         sodipodi:nodetypes="ccccccccccccsscczccscccccccc"
         inkscape:connector-curvature="0"
         id="path20175"
         d="m -1323.7812,-1299.625 c -0.2035,0.014 -0.9298,0.053 -1.139,0.111 -1.6737,0.4648 -2.719,1.483 -2.719,1.483 0,0 3.3668,-1.1259 5.1336,-0.1962 1.7667,0.9299 36.9813,34.4239 37.8181,35.5397 1.9299,2.6425 2.3022,5.2601 2.3022,5.2601 0,0 0.9676,-3.5887 -0.4272,-5.5414 -1.3947,-1.9527 -38.3125,-35.9062 -38.3125,-35.9062 0,0 -1.2324,-0.8479 -2.6562,-0.75 z m -5.3438,24.5625 c 0,0 11.6962,13.072 12.6259,14.8387 0.93,1.7668 -0.4793,3.3216 -0.4793,3.3216 0,0 1.5274,-1.3831 1.9022,-2.1541 0.4701,-0.9673 -0.3964,-2.2288 -0.8613,-2.6937 -0.465,-0.465 -13.1875,-13.3125 -13.1875,-13.3125 z m -20.1875,8.2813 c 0,0 -1.1539,0.8518 -1.2774,2.3766 -0.1235,1.5248 16.6211,18.5454 18.016,19.0103 1.7111,0.4649 2.4765,-1.1529 2.4765,-1.1529 0,0 -0.9301,0.3099 -1.395,0.3099 -0.4649,0 -17.0135,-16.95 -17.8504,-18.1588 -0.8369,-1.2089 0.03,-2.3851 0.03,-2.3851 z m 57.1875,7.625 -28.8125,29.4687 1.2813,2.5 c 0,0 24.5465,-27.0503 26.4062,-29.375 1.8597,-2.3246 1.125,-2.5937 1.125,-2.5937 z"
         style="color:#000000;display:inline;overflow:visible;visibility:visible;opacity:0.56734691;fill:#ffffff;fill-opacity:1;fill-rule:nonzero;stroke:none;stroke-width:1px;marker:none;filter:url(#filter14506-80-6);enable-background:accumulate" />
      <path
         id="path20177"
         d="m -143.65714,505.67648 a 4.8000002,7.0285716 0 0 1 -4.8,7.02857 4.8000002,7.0285716 0 0 1 -4.8,-7.02857 4.8000002,7.0285716 0 0 1 4.8,-7.02857 4.8000002,7.0285716 0 0 1 4.8,7.02857 z"
         style="color:#000000;display:inline;overflow:visible;visibility:visible;opacity:0.6857143;fill:#ffb44f;fill-opacity:1;fill-rule:nonzero;stroke:none;stroke-width:2.99897122;marker:none;filter:url(#filter14511-9);enable-background:accumulate"
         transform="matrix(-0.85377454,1.8191515,-1.8191515,-0.85377454,1126.6236,818.64095)"
         inkscape:connector-curvature="0" />
      <path
         transform="matrix(2.3257173,0,0,2.3257173,3535.272,3046.5118)"
         style="color:#000000;display:inline;overflow:visible;visibility:visible;opacity:0.56734691;fill:#ffffff;fill-opacity:1;fill-rule:nonzero;stroke:none;stroke-width:1px;marker:none;filter:url(#filter14506-80-3);enable-background:accumulate"
         d="m -1382.1923,-1262.03 c 0,0 1.7414,-2.4152 4.8221,-2.2572 4.0013,0.2052 7.6948,5.5403 7.6948,5.5403 0,0 -5.0272,-3.3857 -7.4896,-3.6935 -2.4623,-0.3078 -5.0273,0.4104 -5.0273,0.4104 z"
         id="path20179"
         inkscape:connector-curvature="0"
         sodipodi:nodetypes="cscsc" />
      <path
         id="path20181"
         d="m -143.65714,505.67648 a 4.8000002,7.0285716 0 0 1 -4.8,7.02857 4.8000002,7.0285716 0 0 1 -4.8,-7.02857 4.8000002,7.0285716 0 0 1 4.8,-7.02857 4.8000002,7.0285716 0 0 1 4.8,7.02857 z"
         style="color:#000000;display:inline;overflow:visible;visibility:visible;opacity:0.6857143;fill:#ffb44f;fill-opacity:1;fill-rule:nonzero;stroke:none;stroke-width:3.10946083;marker:none;filter:url(#filter14511-3);enable-background:accumulate"
         transform="matrix(-0.82343706,1.754511,-1.754511,-0.82343706,1084.0802,757.42961)"
         inkscape:connector-curvature="0" />
      <path
         transform="matrix(2.3257173,0,0,2.3257173,3535.272,3046.5118)"
         sodipodi:nodetypes="cscsc"
         inkscape:connector-curvature="0"
         id="path20183"
         d="m -1388.6559,-1277.7274 c 0,0 1.7414,-2.4152 4.8221,-2.2572 4.0013,0.2052 7.6948,5.5403 7.6948,5.5403 0,0 -5.0272,-3.3857 -7.4896,-3.6935 -2.4623,-0.3078 -5.0273,0.4104 -5.0273,0.4104 z"
         style="color:#000000;display:inline;overflow:visible;visibility:visible;opacity:0.56734691;fill:#ffffff;fill-opacity:1;fill-rule:nonzero;stroke:none;stroke-width:1px;marker:none;filter:url(#filter14506-80-3);enable-background:accumulate" />
      <path
         transform="matrix(2.3257173,0,0,2.3257173,3535.272,3046.5118)"
         inkscape:connector-curvature="0"
         id="path20185"
         d="m -1412.5395,-1158.7811 -32.5646,33.7015 c 0,0 -0.7309,1.2993 -0.8121,2.9235 -0.081,1.6242 0.3248,3.0859 0.3248,3.0859 0,0 0.8121,-4.2228 2.2739,-5.847 1.4617,-1.6241 31.9149,-32.3209 31.9149,-32.3209 z"
         style="color:#000000;display:inline;overflow:visible;visibility:visible;opacity:0.56734691;fill:#ffffff;fill-opacity:1;fill-rule:nonzero;stroke:none;stroke-width:1px;marker:none;filter:url(#filter14506-80-6-8);enable-background:accumulate" />
      <path
         transform="matrix(2.3257173,0,0,2.3257173,3535.272,3046.5118)"
         inkscape:connector-curvature="0"
         id="path20187"
         d="m -1324.5275,-1147.2279 30.4476,30.4476 c 0,0 33.4589,-29.89 34.0166,-30.8937 0.5576,-1.0038 -33.5705,33.5704 -33.5705,33.5704 l -32.2321,-32.4551 z"
         style="color:#000000;display:inline;overflow:visible;visibility:visible;opacity:0.56734691;fill:#ffffff;fill-opacity:1;fill-rule:nonzero;stroke:none;stroke-width:1px;marker:none;filter:url(#filter14506-80-6-94);enable-background:accumulate" />
      <path
         transform="matrix(2.3257173,0,0,2.3257173,3535.272,3046.5118)"
         sodipodi:nodetypes="ccczc"
         inkscape:connector-curvature="0"
         id="path20189"
         d="m -1282.4724,-1210.88 c 0,0 1.8873,-3.6637 4.8849,-3.7192 2.9976,-0.055 3.4972,3.9968 3.4972,3.9968 0,0 -1.8238,-2.4183 -3.8302,-2.4425 -2.0064,-0.024 -4.5519,2.1649 -4.5519,2.1649 z"
         style="color:#000000;display:inline;overflow:visible;visibility:visible;opacity:0.56734691;fill:#ffffff;fill-opacity:1;fill-rule:nonzero;stroke:none;stroke-width:1px;marker:none;filter:url(#filter14506-80-6-6);enable-background:accumulate" />
      <path
         transform="matrix(2.3257173,0,0,2.3257173,3535.272,3046.5118)"
         style="color:#000000;display:inline;overflow:visible;visibility:visible;opacity:0.56734691;fill:#ffffff;fill-opacity:1;fill-rule:nonzero;stroke:none;stroke-width:1px;marker:none;filter:url(#filter14506-80-6-6);enable-background:accumulate"
         d="m -1298.1265,-1204.7738 c 0,0 1.8873,-3.6637 4.8849,-3.7192 2.9976,-0.055 3.4972,3.9968 3.4972,3.9968 0,0 -2.2204,-2.5536 -3.8302,-2.4425 -1.6099,0.111 -4.5519,2.1649 -4.5519,2.1649 z"
         id="path20191"
         inkscape:connector-curvature="0" />
      <path
         transform="matrix(2.3257173,0,0,2.3257173,3535.272,3046.5118)"
         sodipodi:nodetypes="ccccszc"
         inkscape:connector-curvature="0"
         id="path20193"
         d="m -1310.3633,-1159.0501 19.5178,-19.7407 c 1.7149,-1.5693 3.5719,-1.7264 5.7995,-0.3346 l 30.2246,26.5441 c 0,0 -26.0853,-21.6601 -31.3597,-25.6338 -0.4902,-0.3692 -1.85,-0.4434 -2.8022,0.032 -0.9523,0.4758 -21.38,19.1325 -21.38,19.1325 z"
         style="color:#000000;display:inline;overflow:visible;visibility:visible;opacity:0.56734691;fill:#ffffff;fill-opacity:1;fill-rule:nonzero;stroke:none;stroke-width:1px;marker:none;filter:url(#filter14506-80-6-66);enable-background:accumulate" />
      <path
         transform="matrix(2.3257173,0,0,2.3257173,3535.272,3046.5118)"
         inkscape:connector-curvature="0"
         id="path20195"
         d="m -1307.575,-1156.0388 13.3836,12.1568 13.0489,-9.8146 c 0,0 -12.4913,11.4875 -13.0489,11.376 -0.5577,-0.1115 -13.3836,-13.7182 -13.3836,-13.7182 z"
         style="color:#000000;display:inline;overflow:visible;visibility:visible;opacity:0.56734691;fill:#ffffff;fill-opacity:1;fill-rule:nonzero;stroke:none;stroke-width:1px;marker:none;filter:url(#filter14506-80-6-67);enable-background:accumulate" />
      <path
         style="color:#000000;display:inline;overflow:visible;visibility:visible;opacity:0.6857143;fill:#ffb44f;fill-opacity:1;fill-rule:nonzero;stroke:none;stroke-width:2.59126377;marker:none;filter:url(#filter14511-1);enable-background:accumulate"
         d="m -1269.6991,-1208.0559 c -1.0072,0.083 -1.9322,0.2662 -2.6875,0.5312 -1.5106,0.5299 -2.2819,1.1806 -2.5,2.625 -0.2411,1.5967 0.1437,2.1992 0.9063,2.7812 0.7625,0.5821 2.1451,0.987 3.6562,1.125 3.0223,0.2762 6.375,-0.375 6.375,-0.375 0.8234,-0.163 1.7118,0.5072 1.7812,1.3438 l 3.7931,44.1749 1.1389,-0.01 -1.6194,-50.9477 c -1.2298,-0.3219 -4.1371,-1.0363 -7.6563,-1.25 -1.0938,-0.067 -2.1803,-0.083 -3.1875,0 z"
         id="path20197"
         inkscape:connector-curvature="0"
         sodipodi:nodetypes="ccscccccccccc"
         transform="matrix(-2.3256909,-0.0110753,0.0110753,-2.3256909,-2550.7552,-2289.3265)"
         inkscape:transform-center-x="-6.8834051"
         inkscape:transform-center-y="-24.567136" />
      <path
         transform="matrix(2.3257173,0,0,2.3257173,3535.272,3046.5118)"
         inkscape:connector-curvature="0"
         id="path20199"
         d="m -1358.6983,-1122.7245 c 0,0 0.7308,-3.0048 4.5476,-3.0048 3.8168,0 6.8216,3.8168 6.8216,3.8168 0,0 -5.6846,-2.4362 -7.7149,-2.4362 -2.0302,0 -3.6543,1.6242 -3.6543,1.6242 z"
         style="color:#000000;display:inline;overflow:visible;visibility:visible;opacity:0.56734691;fill:#ffffff;fill-opacity:1;fill-rule:nonzero;stroke:none;stroke-width:1px;marker:none;filter:url(#filter14506-80-6-61);enable-background:accumulate" />
      <path
         transform="matrix(2.3257173,0,0,2.3257173,3535.272,3046.5118)"
         style="color:#000000;display:inline;overflow:visible;visibility:visible;opacity:0.56734691;fill:#ffffff;fill-opacity:1;fill-rule:nonzero;stroke:none;stroke-width:1px;marker:none;filter:url(#filter14506-80-6-61);enable-background:accumulate"
         d="m -1352.0392,-1107.1325 c 0,0 0.7308,-3.0048 4.5476,-3.0048 3.8168,0 6.8216,3.8168 6.8216,3.8168 0,0 -5.6846,-2.4362 -7.7149,-2.4362 -2.0302,0 -3.6543,1.6242 -3.6543,1.6242 z"
         id="path20201"
         inkscape:connector-curvature="0" />
      <path
         transform="matrix(2.3257173,0,0,2.3257173,3535.272,3046.5118)"
         inkscape:connector-curvature="0"
         id="path20203"
         d="m -1363.1648,-1131.0078 3.5732,44.2586 c 0,0 3.898,-0.6497 5.847,-0.6497 1.949,0 5.9282,0.8121 6.3342,2.8423 0.4061,2.0302 -0.2436,2.3551 -0.2436,2.3551 0,0 -0.406,-4.0605 -6.9027,-3.8168 -6.4967,0.2436 -6.1718,0.2436 -6.1718,0.2436 l -3.2484,-46.0452 z"
         style="color:#000000;display:inline;overflow:visible;visibility:visible;opacity:0.56734691;fill:#ffffff;fill-opacity:1;fill-rule:nonzero;stroke:none;stroke-width:1px;marker:none;filter:url(#filter14506-80-6-4);enable-background:accumulate" />
      <path
         transform="matrix(2.3257173,0,0,2.3257173,3535.272,3046.5118)"
         inkscape:connector-curvature="0"
         id="path20205"
         d="m -1412.9456,-1121.9125 14.0491,-13.8054 c 0,0 0.9745,-0.7309 1.949,-0.7309 0.9745,0 2.1114,0.4061 2.1114,0.4061 l 19.0028,18.0282 c 0,0 1.2181,1.6242 1.4617,2.3551 0.2437,0.7309 -20.4645,-19.0028 -21.2766,-19.3276 -0.8121,-0.3249 -2.0302,-0.3249 -2.9235,0.3248 -0.8933,0.6497 -14.3739,12.7497 -14.3739,12.7497 z"
         style="color:#000000;display:inline;overflow:visible;visibility:visible;opacity:0.56734691;fill:#ffffff;fill-opacity:1;fill-rule:nonzero;stroke:none;stroke-width:1px;marker:none;filter:url(#filter14506-80-6-2);enable-background:accumulate" />
      <path
         transform="matrix(2.3257173,0,0,2.3257173,3535.272,3046.5118)"
         inkscape:connector-curvature="0"
         id="path20207"
         d="m -1409.7784,-1119.5574 11.6128,14.7799 c 0,0 -11.8565,-13.4806 -11.9377,-13.8054 -0.081,-0.3248 0.3249,-0.9745 0.3249,-0.9745 z"
         style="color:#000000;display:inline;overflow:visible;visibility:visible;opacity:0.56734691;fill:#ffffff;fill-opacity:1;fill-rule:nonzero;stroke:none;stroke-width:1px;marker:none;filter:url(#filter14506-80-6-1);enable-background:accumulate" />
      <path
         transform="matrix(2.3257173,0,0,2.3257173,3535.272,3046.5118)"
         inkscape:connector-curvature="0"
         id="path20209"
         d="m -1377.2139,-1114.1977 c 0,0 -0.812,0 -1.2181,0.2437 -0.406,0.2436 -26.0679,27.6108 -26.0679,27.6108 l -31.0216,-33.2954 0,-1.1369 c 0,0 -1.2181,1.0557 -0.4873,1.949 0.7309,0.8933 31.6713,34.1887 31.6713,34.1887 z"
         style="color:#000000;display:inline;overflow:visible;visibility:visible;opacity:0.56734691;fill:#ffffff;fill-opacity:1;fill-rule:nonzero;stroke:none;stroke-width:1px;marker:none;filter:url(#filter14506-80-6-3);enable-background:accumulate" />
      <path
         transform="matrix(2.3257173,0,0,2.3257173,3535.272,3046.5118)"
         inkscape:connector-curvature="0"
         id="path20211"
         d="m -1447.3658,-1178.3983 -4.2543,2.8108 c 0,0 1.6713,-3.0387 4.4062,-3.0387 2.7349,0 3.7225,3.4945 3.7225,3.4945 0,0 -2.279,-2.5829 -4.1783,-2.279 -1.8992,0.3038 -3.9504,1.8232 0.3039,-0.9876 z"
         style="color:#000000;display:inline;overflow:visible;visibility:visible;opacity:0.56734691;fill:#ffffff;fill-opacity:1;fill-rule:nonzero;stroke:none;stroke-width:1px;marker:none;filter:url(#filter14506-80-6-12);enable-background:accumulate" />
      <path
         transform="matrix(2.3257173,0,0,2.3257173,3535.272,3046.5118)"
         style="color:#000000;display:inline;overflow:visible;visibility:visible;opacity:0.56734691;fill:#ffffff;fill-opacity:1;fill-rule:nonzero;stroke:none;stroke-width:1px;marker:none;filter:url(#filter14506-80-6-12);enable-background:accumulate"
         d="m -1431.4882,-1184.172 -4.2543,2.8108 c 0,0 1.6713,-3.0387 4.4062,-3.0387 2.7349,0 3.7225,3.4945 3.7225,3.4945 0,0 -2.279,-2.5829 -4.1783,-2.279 -1.8992,0.3038 -3.9504,1.8232 0.3039,-0.9876 z"
         id="path20213"
         inkscape:connector-curvature="0" />
      <path
         transform="matrix(2.3257173,0,0,2.3257173,3535.272,3046.5118)"
         inkscape:connector-curvature="0"
         id="path20215"
         d="m -1449.2,-1225.014 13.0012,-13.0879 c 0,0 1.2134,-0.8667 2.1669,-0.8667 0.9534,0 2.5135,0.9534 2.5135,0.9534 0,0 13.5213,12.8278 13.7813,13.7812 0.26,0.9535 0.26,2.1669 0.26,2.1669 0,0 -0.6067,-2.1669 -3.467,-4.6804 -2.8602,-2.5136 -11.6144,-10.661 -11.6144,-10.661 0,0 -0.8667,-0.52 -1.7335,-0.3467 -0.8667,0.1733 -14.908,12.7412 -14.908,12.7412 z"
         style="color:#000000;display:inline;overflow:visible;visibility:visible;opacity:0.56734691;fill:#ffffff;fill-opacity:1;fill-rule:nonzero;stroke:none;stroke-width:1px;marker:none;filter:url(#filter14506-80-6-121);enable-background:accumulate" />
      <path
         transform="matrix(2.3257173,0,0,2.3257173,3535.272,3046.5118)"
         inkscape:connector-curvature="0"
         id="path20217"
         d="m -1466.9683,-1231.5146 c 0,0 -0.6067,0.78 -0.26,1.0401 0.3467,0.26 27.5625,26.3491 27.5625,26.3491 l 1.6468,-0.9535 c 0,0 -0.7801,1.4735 -1.3868,1.5602 -0.6067,0.087 -0.6934,0 -6.1539,-4.7671 -5.4605,-4.7671 -22.9688,-21.322 -22.6221,-22.1021 0.3467,-0.78 1.2135,-1.1267 1.2135,-1.1267 z"
         style="color:#000000;display:inline;overflow:visible;visibility:visible;opacity:0.56734691;fill:#ffffff;fill-opacity:1;fill-rule:nonzero;stroke:none;stroke-width:1px;marker:none;filter:url(#filter14506-80-6-82);enable-background:accumulate" />
      <path
         id="path20221"
         d="M 492.47609,279.17557 A 128.46501,128.46501 0 0 1 364.01108,407.64058 128.46501,128.46501 0 0 1 235.54607,279.17557 128.46501,128.46501 0 0 1 364.01108,150.71056 128.46501,128.46501 0 0 1 492.47609,279.17557 Z"
         style="color:#000000;display:inline;overflow:visible;visibility:visible;fill:#ffffff;fill-opacity:1;fill-rule:nonzero;stroke:#0055d4;stroke-width:15.75885773;stroke-opacity:1;marker:none;enable-background:accumulate"
         inkscape:connector-curvature="0" />
      <path
         id="path20223"
         d="M 499.78209,279.1759 A 135.77121,135.77121 0 0 1 364.0109,414.94711 135.77121,135.77121 0 0 1 228.23968,279.1759 135.77121,135.77121 0 0 1 364.0109,143.40468 135.77121,135.77121 0 0 1 499.78209,279.1759 Z"
         style="color:#000000;display:inline;overflow:visible;visibility:visible;fill:#0055d4;fill-opacity:1;fill-rule:nonzero;stroke:none;stroke-width:1;marker:none;enable-background:accumulate"
         inkscape:connector-curvature="0" />
      <path
         id="path20225"
         d="M 499.78209,279.1759 A 135.77121,135.77121 0 0 1 364.0109,414.94711 135.77121,135.77121 0 0 1 228.23968,279.1759 135.77121,135.77121 0 0 1 364.0109,143.40468 135.77121,135.77121 0 0 1 499.78209,279.1759 Z"
         style="color:#000000;display:inline;overflow:visible;visibility:visible;opacity:0.4820717;fill:url(#radialGradient3648);fill-opacity:1;fill-rule:nonzero;stroke:none;stroke-width:1;marker:none;enable-background:accumulate"
         inkscape:connector-curvature="0" />
      <path
         id="path20227"
         d="m 407.53088,170.44995 a 68.136078,68.136078 0 0 1 -68.13607,68.13608 68.136078,68.136078 0 0 1 -68.13608,-68.13608 68.136078,68.136078 0 0 1 68.13608,-68.13608 68.136078,68.136078 0 0 1 68.13607,68.13608 z"
         style="color:#000000;display:inline;overflow:visible;visibility:visible;fill:url(#radialGradient3650);fill-opacity:1;fill-rule:nonzero;stroke:none;stroke-width:1.35547781;marker:none;filter:url(#filter4645);enable-background:accumulate"
         transform="matrix(1.5147,0,0,1.5147,-150.07019,1.1139893)"
         inkscape:connector-curvature="0" />
      <path
         transform="matrix(2.2933275,0,0,2.2933275,3492.1224,3007.9074)"
         inkscape:connector-curvature="0"
         id="path20229"
         d="m -1392.4809,-1232.0483 c -0.8019,0.033 -1.509,0.2328 -2.0475,0.6749 -0.2982,2.8855 0.7189,6.5887 2.9222,8.6149 -0.1902,-0.2464 -0.4195,-0.6929 -0.7355,-1.4291 -0.9777,-1.6628 -2.7369,-9.0374 0.656,-5.4787 1.989,4.1785 2.6367,9.2781 5.7252,12.9819 2.3538,3.8651 6.8255,4.1147 10.5955,5.0816 3.2734,1.588 4.3264,6.2894 7.8522,7.2255 2.5104,3.2637 -0.6389,7.349 -2.0078,10.5006 -2.7461,4.8644 2.8883,7.8174 4.6716,11.632 3.6086,4.9811 7.031,11.5771 4.3138,17.8452 -1.6058,4.5347 -1.9956,9.5445 -3.1409,14.2721 -0.5096,3.3536 -1.2328,10.3996 2.3855,11.0564 0.7253,-3.6267 0.4384,-7.5298 3.3595,-10.2624 2.8735,-5.4672 8.4716,-8.8774 12.7226,-12.7436 1.9606,-2.3297 5.7601,-7.6173 9.5221,-10.203 1.6683,-2.8236 1.1693,-7.6219 4.2343,-10.4213 2.348,-2.4836 3.5146,-8.2489 -0.994,-8.9324 -6.0092,-2.3954 -10.9523,-6.9424 -14.9491,-12.0886 -4.3284,-2.3316 -7.0463,-2.9684 -11.6629,-4.4538 -0.281,-0.091 -0.6668,2.4248 -1.5084,2.4164 -1.1507,-0.011 0.2655,-3.2189 -2.2349,-3.1236 -0.4188,1.379 -2.8098,3.5597 -4.453,4.0295 -0.6343,-1.0347 -2.8863,-3.2068 -2.7234,-4.9624 -0.075,-3.5364 -4.592,-3.6234 -2.8626,-6.9872 -1.0331,-2.9637 -5.1833,4.3511 -6.8781,-0.6552 -1.002,-4.349 -1.1763,-11.7175 -5.1885,-12.545 -1.9336,-0.7657 -5.1682,-2.1428 -7.5739,-2.0447 z m 24.8308,12.2251 c 0.3973,0.1244 2.1717,-0.4166 4.1253,-0.3854 1.8411,0.03 4.9133,1.545 5.4703,1.0618 -0.868,-2.878 -6.9897,-2.3488 -6.8746,-2.3354 -0.9249,0.7782 -3.383,1.4105 -2.721,1.659 z m 20.154,5.4712 c -0.1529,0.27 -0.9304,0.3375 -0.9313,-0.2161 0.3055,-0.5351 0.9002,-0.076 0.9313,0.2161 z m -3.6979,-1.0674 c -3.4763,-0.1072 -1.191,-1.878 -3.0367,-1.8379 -1.2939,0.027 -0.927,1.3862 -3.1699,1.1772 2.062,0.9711 2.2009,0.732 3.6375,1.4994 2.0386,-0.1206 3.2905,-0.092 2.5691,-0.8387 z"
         style="font-size:12px;fill:#0055d4;fill-opacity:1;fill-rule:nonzero;stroke:#ff7d23;stroke-width:1.1452688;stroke-opacity:1;filter:url(#filter15293)"
         sodipodi:nodetypes="cccccccccccccccccccssccccccccscccccccsccc" />
      <path
         sodipodi:nodetypes="cccccccccccccccccccssccccccccscccccccsccc"
         style="font-size:12px;fill:#ccff00;fill-opacity:1;fill-rule:nonzero;stroke:#d4ff2a;stroke-width:2.62647653;stroke-opacity:1"
         d="m 298.70765,182.41728 c -1.83906,0.0762 -3.46064,0.5337 -4.69561,1.54778 -0.68393,6.61741 1.64864,15.10985 6.70145,19.75662 -0.43599,-0.56496 -0.96181,-1.58902 -1.68672,-3.27732 -2.24222,-3.81338 -6.27649,-20.72579 1.50445,-12.56454 4.5614,9.5827 6.04693,21.27787 13.12975,29.7719 5.3982,8.86383 15.65327,9.4364 24.29911,11.65367 7.50699,3.64188 9.92177,14.42356 18.00764,16.57044 5.75698,7.48467 -1.46531,16.85357 -4.60473,24.08137 -6.29751,11.1557 6.62397,17.92781 10.71365,26.67607 8.27577,11.42307 16.12447,26.55 9.89289,40.9247 -3.68258,10.39954 -4.57663,21.88879 -7.20311,32.73062 -1.16852,7.69085 -2.82714,23.84972 5.47069,25.35601 1.66334,-8.31727 1.00541,-17.2683 7.7045,-23.53507 6.58983,-12.53801 19.42805,-20.35887 29.177,-29.22533 4.49653,-5.34277 13.20986,-17.46895 21.83731,-23.39875 3.82599,-6.47531 2.68163,-17.47946 9.71061,-23.89935 5.3848,-5.69578 8.06013,-18.91746 -2.27952,-20.48494 -13.78112,-5.49354 -25.11725,-15.92118 -34.28313,-27.72325 -9.9265,-5.34698 -16.1594,-6.80756 -26.74672,-10.21384 -0.64454,-0.21012 -1.5294,5.56078 -3.45933,5.5416 -2.63909,-0.0263 0.60881,-7.38197 -5.12531,-7.16345 -0.9605,3.16228 -6.4438,8.16335 -10.21226,9.241 -1.45455,-2.37302 -6.61925,-7.3544 -6.24576,-11.38052 -0.17072,-8.11004 -10.53086,-8.30965 -6.56488,-16.02387 -2.36908,-6.7968 -11.88691,9.97851 -15.77357,-1.50261 -2.2979,-9.97378 -2.69765,-26.872 -11.89898,-28.76989 -4.43428,-1.75607 -11.8525,-4.91414 -17.36942,-4.68905 z m 56.94516,28.03606 c 0.91112,0.28523 4.98032,-0.95525 9.46057,-0.88381 4.22232,0.0683 11.26784,3.54311 12.54536,2.435 -1.99061,-6.60007 -16.02965,-5.38664 -15.76569,-5.35591 -2.12114,1.78469 -7.75834,3.23477 -6.24024,3.80472 z m 46.21968,12.5472 c -0.35064,0.61932 -2.13375,0.77402 -2.13585,-0.49562 0.70074,-1.22709 2.06467,-0.17335 2.13585,0.49562 z m -8.48037,-2.44788 c -7.97241,-0.24689 -2.73153,-4.30689 -6.96436,-4.21497 -2.96713,0.063 -2.12587,3.17909 -7.26956,2.69976 4.72897,2.22699 5.04756,1.67884 8.34195,3.43858 4.67512,-0.27657 7.54639,-0.21012 5.89197,-1.92337 z"
         id="path20231"
         inkscape:connector-curvature="0" />
      <path
         style="opacity:0.87980772;fill:url(#linearGradient3652);fill-opacity:1;stroke:none"
         d="m 405.58344,161.80627 c 9.101,4.80645 21.28575,12.3053 26.66214,17.15798 6.19245,3.2655 16.30648,11.68939 25.15193,18.32729 0,0 -12.23465,-13.79925 -23.24248,-21.64637 -8.81366,-6.08371 -18.75724,-10.3491 -28.57159,-13.8389 z m 45.20953,24.40994 11.88218,14.54385 10.59126,11.0333 -8.76586,-12.60472 z m -23.58392,-6.50158 C 412.37734,170.41034 385.80581,157.881 385.80581,157.881 c 0,0 12.9916,14.02512 17.87973,31.18336 4.8884,17.15851 -1.4724,30.22287 -1.4724,30.22287 0,0 19.38839,3.55519 42.98517,19.02514 23.91092,15.6756 37.32459,48.08395 37.32459,48.08395 0,0 1.36814,-18.19255 -5.9508,-44.13111 -7.31868,-25.93855 -17.41328,-39.60804 -17.41328,-39.60804 0,0 -17.11806,-13.63851 -31.94977,-22.94254 z m 37.69545,27.50972 c 5.33858,9.57114 11.96623,19.73035 14.09866,27.96645 4.60947,7.694 8.42994,20.72053 12.28403,35.55014 0,0 -0.50139,-27.39703 -6.8157,-38.26854 -6.4572,-10.49803 -19.56699,-25.24805 -19.56699,-25.24805 z"
         id="path20233"
         inkscape:connector-curvature="0"
         sodipodi:nodetypes="cccccccccczczcsczczccccc" />
    </g>
  </g>
</svg>
